<?xml version="1.0" encoding="utf-8"?>
<!-- Generator: Adobe Illustrator 22.1.0, SVG Export Plug-In . SVG Version: 6.00 Build 0)  -->
<svg version="1.1" id="Layer_1" xmlns="http://www.w3.org/2000/svg" xmlns:xlink="http://www.w3.org/1999/xlink" x="0px" y="0px"
	 viewBox="0 0 28.8 23.4" style="enable-background:new 0 0 28.8 23.4;" xml:space="preserve">

<g>
	<path class="st0" d="M11.6,0.4c-0.1-0.1-0.1-0.3-0.2-0.3c-0.1-0.1-0.2,0-0.2,0S11.1-0.1,11-0.1S10.9,0,10.9,0s-0.1,0-0.2,0
		s-0.1,0.1-0.1,0.1S10.5,0,10.4,0s-0.2,0.1-0.2,0.2s-0.1-0.1-0.1-0.1L10,0.2L9.7,0H9.5H9.4L9.2,0.1c0,0-0.4-0.2-0.4,0.3v0.1v0.3v0.1
		c0,0.1-0.1,0.2,0,0.3s0.5,0.4,0.5,0.4S9,1.7,9.1,1.7S9,1.8,9,1.8V2c0,0,0.3,0.1,0.4,0.2c0.1,0,0.1,0.3,0.3,0.4v0.6H9.4v0.1H9.1H9
		H8.7c0,1-0.2,0.2-0.2,0.2H8.4v0.1H8.3L8.1,3.4V3.3c0,0,0-0.1-0.1-0.2S7.7,2.8,7.7,2.7S7.5,2.2,7.2,2.2c-0.3-0.1-1.7,0-2,0.5
		C5,3.2,5,3.6,5.1,3.7c0.1,0.2,0.3,0.7,0.5,0.9s0.3,0.6,0.3,0.6s-0.3,0.9,0,1.4S6.5,7.8,6.8,8C7,8.2,7.2,8.4,7.5,8.8
		s2.8,2.5,2.8,2.5s0.5,0.4,0.6,0.4s0.9-0.3,1-0.5s1.4,0.4,1.4,0.4s1.6,0.5,2.5-1.1c0,0,0.2-0.4,0.2-0.7l1-1.6c0,0-0.2-0.4-0.9-0.6
		L16.3,7c0,0-0.1-0.1-0.3-0.2L15.8,6c0,0,0.8,0.2,1,0.2l1.3,0.5L18.6,7c0,0,0.2,0.3,0.5,0.5c0.4,0.2,0.5,0.3,0.5,0.3S19.8,8,20,8
		c0.1,0,0.7-0.6,0.9-1.4c0,0,1.2-1.5,0.6-2.9c0,0-0.2-1-0.6-0.6s-0.8,1.1-0.8,1.1S18.9,4.9,18.5,5s-1.4-0.6-1.4-0.6S15,2.4,14,2
		s-1.2-0.5-1.9,0.4l-0.4-0.7l-0.1-0.4l0.1-0.4c0,0,0,0,0-0.1L11.6,0.4z M11.5,4.6l-0.4,0.1L11,4.8l-0.3,0.1c0-0.1,0.3-0.2,0.3-0.2
		c0.1-0.2,0.4-0.3,0.4-0.3l0.1-0.2l0.1,0.1C11.6,4.4,11.6,4.6,11.5,4.6z"/>
	<path class="st0" d="M0,0.3h24v0.6H0V0.3z"/>
</g>
<path class="st0" d="M25.6,18.6c-0.2,0.6-0.5,1.2-0.7,1.7s-0.2,0.8,0.4,0.9c0.8,0.1,1.5,0.4,2.3,0.1c0,0,0,0,0.1,0
	c0.2,0,0.9,0.6,0.9,0.8c0.1,0.4-0.3,0.8-0.7,0.8c-1,0-1.9,0.2-2.9,0.3c-0.3,0-0.7,0.2-1,0.2s-0.5-0.1-0.6-0.4
	c-0.1-0.7-0.4-1.2-0.5-1.9c0-0.3-0.1-0.5-0.1-0.8c0-0.2-0.1-0.2-0.3-0.2c-0.5,0.1-1,0.1-1.4,0.2c-0.7,0.2-1.4,0-2.1,0.1
	c-0.2,0-0.3,0-0.5,0.1c-0.8,0.4-1.7,0.6-2.6,0.6c-0.7,0.1-1.3,0.2-1.9,0.4c-0.3,0-0.5-0.1-0.6-0.4s-0.2-0.4-0.5-0.3
	c-0.4,0.1-0.8,0.1-1.2,0c-0.4-0.2-0.8-0.2-1.3-0.2s-1.1-0.1-1.6-0.2s-0.9-0.1-1.3,0c-0.3,0-0.5,0.3-0.6,0.6c-0.1,0.2,0,0.4,0.2,0.6
	c0.1,0.1,0.2,0.2,0.1,0.3c-0.2,0.2-0.5,0.4-0.7,0.5c-0.5,0.2-1.2-0.2-1.3-0.7c-0.1-0.6-0.1-1.2-0.2-1.8s0.1-0.8,0.7-0.8
	c1,0,2,0.2,3.1-0.1c0.4-0.1,0.8-0.2,1.2-0.3c0.4-0.1,0.8-0.1,1.2-0.1c0.5,0.1,1.1,0.1,1.6,0.1c0.4,0,0.8-0.2,1.3-0.2
	c0.5-0.1,1-0.3,1.6-0.4c0.3,0,0.7-0.2,0.9-0.4c0.6-0.4,1.2-0.5,1.8-0.4c1.3,0.2,2.5-0.1,3.8-0.6c0.9-0.3,1.8-0.4,2.7,0
	c0.2,0.1,0.5,0.1,0.7,0.3c0.2,0.1,0.4,0,0.6-0.1c0.3-0.2,0.5-0.4,0.7-0.5c0.8-0.3,1.7,0.2,1.9,1c0.1,0.5-0.1,0.9-0.3,1.4
	c0,0.1-0.1,0.1-0.2,0.1c-0.3-0.2-0.5,0.1-0.7,0.2s-0.4,0.1-0.6,0.3c0,0-0.1,0-0.2-0.1c-0.1-0.2-0.4-0.2-0.5-0.2
	c-0.3,0.1-0.4-0.1-0.5-0.3C25.7,18.7,25.7,18.6,25.6,18.6z M26.4,22.1c-0.3,0-0.7-0.1-1,0C25.7,22.2,26.1,22.2,26.4,22.1z"/>
</svg>
