<svg xmlns="http://www.w3.org/2000/svg" enable-background="new 0 0 50 50" viewBox="0 0 50 50"><path d="M39.9536,16.3672l-1.0227,0.909c-0.2629-0.3007-0.6152-0.528-1.033-0.6287l-7.1187-1.7163l-4.0009-4.2365
		c0.1362-1.3372-0.2959-2.7202-1.3319-3.7327V6.9619c-1.805-1.764-4.6982-1.7307-6.4622,0.0743l-7.4074,7.5797
		c-1.764,1.805-1.7307,4.6982,0.0742,6.4622c1.088,1.0633,2.5702,1.4614,3.9633,1.2242l6.577,2.9155l1.3848,7.2852
		c0.1821,0.959,1.021,1.627,1.9624,1.627c0.124,0,0.2495-0.0117,0.376-0.0356c1.085-0.2061,1.7974-1.2534,1.5913-2.3384
		l-1.5806-8.3149c-0.1226-0.645-0.5542-1.189-1.1543-1.4551l-5.3148-2.3561l5.217-5.3384l3.6055,3.8181
		c0.2661,0.2817,0.6084,0.4805,0.9854,0.5713l6.3613,1.5336l-1.2383,1.1006c-0.4126,0.3672-0.4497,0.999-0.083,1.4121
		c0.1978,0.2222,0.4722,0.3354,0.748,0.3354c0.2363,0,0.4731-0.0835,0.6641-0.2524l2.0535-1.8253l4.7487,7.2359l-2.7726,6.8845
		C39.3345,35.022,38.924,34.9281,38.52,34.82l-9.98-2.81c0.03,0.64-0.15,1.27-0.52,1.81c-0.45,0.66-1.13,1.11-1.92,1.2599
		c-0.19,0.03-0.38,0.05-0.56,0.05c-2.888,0-3.0287-2.8588-3.42-4.94c-3.9763-1.3693-6.7929-1.4191-8.791-0.7914l-0.442-2.1653
		c1.6415-0.7312,2.6048-0.699,4.9852-0.6699c4.3979,0.4811,2.199-1.0995,2.199-1.0995c-2.4888-1.7975-6.8193-1.5044-8.7469-2.6159
		c-0.4486-0.2587-0.9692-0.4077-1.5265-0.4077c-1.6889,0-3.058,1.3538-3.058,3.0236c0,1.6699,1.3691,3.0236,3.058,3.0236
		c0.4462,0,0.8678-0.0976,1.2489-0.2681l0.4276,2.095c-0.5569,0.3984-1.0162,0.8597-1.3843,1.3556c-1.53,2.05-1.53,4.85-0.25,7.04
		c2,3.4301-0.01,5.89-0.01,5.89H3.38c-1.1,0-2.11,0.75-2.29,1.83C0.86,47.81,1.93,49,3.26,49h43.48c1.33,0,2.4-1.19,2.17-2.57
		c-0.18-1.08-1.19-1.83-2.29-1.83h-5.98l2.38-5.09c0.6921-1.4901,0.0324-3.1752-1.3225-3.8965l2.8718-7.1306
		c0.1221-0.3037,0.0879-0.6484-0.0918-0.9224l-5.1968-7.9187l2.002-1.7795 M27.05,37.66c-0.2,0.97-1.06,1.67-2.05,1.67
		c-0.14,0-0.29-0.0099-0.43-0.04l-6.24-1.31c-0.69,0.71-1.66,1.15-2.74,1.15c-2.1201,0-3.86-1.74-3.86-3.86
		c0-2.14,1.74-3.86,3.86-3.86c1.64,0,3.04,1.01,3.6,2.46l6.24,1.31C26.56,35.42,27.29,36.53,27.05,37.66z"/><circle cx="30.008" cy="4.848" r="3.848"/><path d="M25.2235,36.1571l-8.199-1.7144c-0.2881-0.4962-0.8195-0.8357-1.431-0.8357
		c-0.9126,0-1.6603,0.7477-1.6603,1.6603c0,0.9125,0.7477,1.6602,1.6603,1.6602c0.3685,0,0.7067-0.126,0.9831-0.3315l8.197,1.714
		c0.0757,0.0156,0.1514,0.0231,0.226,0.0231c0.5095,0,0.9669-0.3559,1.0754-0.8745C26.199,36.8641,25.8178,36.2817,25.2235,36.1571z
		"/></svg>